<svg width="14" height="12" viewBox="0 0 14 12" fill="none" xmlns="http://www.w3.org/2000/svg">
<path d="M4.99508 5.99618C5.00121 5.32297 5.18206 4.66289 5.51993 4.08056C5.8578 3.49824 6.3411 3.01365 6.92251 2.67422C7.03823 2.58279 7.17567 2.52288 7.32143 2.50035C7.46718 2.47782 7.61628 2.49343 7.75421 2.54566C7.89214 2.5979 8.01417 2.68497 8.10844 2.7984C8.20271 2.91183 8.26601 3.04773 8.29213 3.19289C8.43443 3.61053 8.6066 4.01824 8.74463 4.43731C8.78143 4.56311 8.85082 4.67692 8.94578 4.76726C9.04075 4.8576 9.1579 4.92124 9.28538 4.95171C9.70801 5.07338 10.1306 5.19363 10.5511 5.32027C10.6064 5.33071 10.659 5.35208 10.7059 5.38311C10.7528 5.41415 10.793 5.45423 10.8242 5.50101C10.8554 5.54779 10.877 5.60033 10.8877 5.65555C10.8983 5.71077 10.8978 5.76755 10.8862 5.82258C10.8798 5.88197 10.8607 5.93929 10.8303 5.99067C10.7998 6.04204 10.7587 6.08628 10.7096 6.1204C10.6606 6.15453 10.6048 6.17774 10.546 6.18847C10.4873 6.1992 10.4269 6.1972 10.369 6.18261C9.94565 6.12356 9.52373 6.05738 9.10394 5.97627C8.78918 5.9291 8.4907 5.80571 8.23451 5.61685C7.97831 5.42799 7.77218 5.17938 7.63401 4.89266C7.56286 4.75036 7.47604 4.61447 7.38283 4.45225C7.05563 4.77108 6.83582 5.18388 6.75389 5.63333C6.70195 5.83967 6.75386 5.93784 6.95877 6.00828C7.56781 6.21674 8.17259 6.43945 8.77451 6.66855C8.8944 6.69736 9.00512 6.75591 9.09643 6.83878C9.18774 6.92165 9.25671 7.02618 9.29697 7.14272C9.33724 7.25927 9.34748 7.38408 9.32681 7.50563C9.30613 7.62719 9.25517 7.74158 9.17864 7.83826C8.87696 8.33631 8.55397 8.82154 8.23451 9.30891C8.00825 9.65399 8.00398 9.65113 8.23451 10.0012C8.24874 10.0225 8.27363 10.0446 8.27363 10.0659C8.27363 10.1805 8.30848 10.3313 8.25014 10.3996C8.20722 10.442 8.15508 10.4737 8.0978 10.4925C8.04052 10.5113 7.97966 10.5165 7.92001 10.5078C7.61301 10.4208 7.31251 10.3124 7.0207 10.1833C6.96394 10.1648 6.91208 10.1338 6.86892 10.0925C6.82577 10.0513 6.79243 10.0008 6.77139 9.94495C6.75035 9.88908 6.74215 9.82918 6.74737 9.76971C6.7526 9.71023 6.77112 9.6527 6.80157 9.60134C7.02498 9.06393 7.24906 8.52652 7.4739 7.9891C7.49239 7.94427 7.50593 7.89802 7.52514 7.84679C7.04915 7.70449 6.58385 7.56646 6.12351 7.41989C5.92091 7.36366 5.72575 7.2834 5.54221 7.18083C5.3486 7.05504 5.19451 6.87707 5.0977 6.66746C5.00089 6.45786 4.96532 6.22514 4.99508 5.99618V5.99618Z" fill="url(#paint0_linear_43_8781)"/>
<path d="M3.90118 6.6407C3.48638 6.64568 3.07086 6.63644 2.65606 6.64498C2.48415 6.6487 2.31302 6.66944 2.14519 6.70688C1.79242 6.78141 1.46716 6.95214 1.20545 7.20016C0.94374 7.44819 0.755804 7.76382 0.662448 8.11209L0.513062 8.55962L0.42343 8.54894C0.291525 8.24169 0.242511 7.90521 0.28134 7.57311C0.320168 7.241 0.445419 6.92489 0.644644 6.65636C0.244783 6.57027 0.0463098 6.38173 0.0391948 6.05729C0.0202216 5.2182 0.00744665 4.37887 0.000806019 3.53931C-0.00339611 3.46038 0.00886382 3.38144 0.0368498 3.30752C0.0648358 3.2336 0.107886 3.16631 0.163307 3.10995C0.218728 3.0536 0.285283 3.00939 0.358725 2.98017C0.432167 2.95095 0.51085 2.93734 0.58984 2.94022C1.46451 2.93216 2.33925 2.93216 3.21391 2.94022C3.38578 2.94015 3.55183 3.00229 3.68144 3.11516C3.81105 3.22803 3.89544 3.384 3.91898 3.55425C4.07836 4.38338 4.23557 5.21346 4.39068 6.04448C4.41172 6.11743 4.41469 6.1944 4.39936 6.26876C4.38404 6.34311 4.35087 6.41262 4.3027 6.4713C4.25452 6.52998 4.19278 6.57606 4.12283 6.60557C4.05288 6.63508 3.97683 6.64714 3.90118 6.6407V6.6407Z" fill="url(#paint1_linear_43_8781)"/>
<path d="M10.7331 7.43097C10.8648 7.3648 10.9181 7.30147 10.8619 7.15419C10.8219 7.03831 10.7914 6.91932 10.7709 6.79845C10.7324 6.60919 10.7965 6.4797 10.9388 6.4427C11.0946 6.40072 11.2184 6.48611 11.2703 6.67679C11.3173 6.84826 11.3592 7.02186 11.4076 7.21325C11.5806 7.20361 11.7541 7.20361 11.927 7.21325C12.3552 7.26617 12.7569 7.44888 13.0782 7.73684C13.3995 8.02481 13.625 8.40422 13.7243 8.82409C13.8227 9.24485 13.7906 9.68562 13.6323 10.0877C13.4739 10.4897 13.1967 10.834 12.8377 11.0745C12.4786 11.312 12.0555 11.4338 11.6251 11.4238C11.1947 11.4137 10.7777 11.2722 10.4301 11.0183C10.1401 10.8037 9.90981 10.5184 9.76116 10.1896C9.61252 9.8609 9.55044 9.49961 9.58081 9.1401C9.61119 8.78059 9.733 8.43482 9.93469 8.13567C10.1364 7.83652 10.4112 7.59393 10.7331 7.43097V7.43097ZM10.4891 9.75755C10.5996 10.0533 10.8162 10.2973 11.0967 10.442C11.3773 10.5867 11.7017 10.6217 12.0067 10.5402C12.3186 10.4536 12.5859 10.2516 12.7544 9.97521C12.9228 9.6988 12.9799 9.36865 12.9139 9.05175C12.8539 8.75703 12.6888 8.49418 12.4494 8.31211C12.21 8.13004 11.9126 8.04118 11.6126 8.06206C11.6688 8.27978 11.7193 8.49394 11.7833 8.70241C11.794 8.73869 11.8545 8.7636 11.9 8.78637C11.9739 8.81816 12.0402 8.86526 12.0946 8.92455C12.149 8.98385 12.1901 9.054 12.2154 9.13037C12.2407 9.20674 12.2495 9.28761 12.2412 9.36763C12.233 9.44765 12.2078 9.52501 12.1675 9.59462C12.1292 9.66113 12.0779 9.71923 12.0166 9.76539C11.9553 9.81156 11.8853 9.84484 11.8108 9.86325C11.7362 9.88166 11.6588 9.88482 11.583 9.87253C11.5073 9.86023 11.4348 9.83274 11.3699 9.79171C11.303 9.74753 11.246 9.68997 11.2024 9.62265C11.1588 9.55533 11.1297 9.47974 11.1168 9.40059C11.1039 9.32145 11.1075 9.24048 11.1274 9.16281C11.1474 9.08514 11.1832 9.01245 11.2326 8.94931C11.2693 8.88822 11.2831 8.81613 11.2717 8.74581C11.2369 8.55869 11.1828 8.37584 11.1294 8.17662C10.8446 8.31266 10.621 8.5503 10.5025 8.84285C10.384 9.13539 10.3793 9.46166 10.4891 9.75755V9.75755Z" fill="url(#paint2_linear_43_8781)"/>
<path d="M3.12252 7.20739C3.39984 7.20379 3.67508 7.25554 3.93216 7.35962C4.18924 7.4637 4.42297 7.61802 4.61968 7.81353C4.81639 8.00905 4.97219 8.24184 5.07783 8.49828C5.18347 8.75472 5.23686 9.02966 5.23494 9.30701C5.23739 9.58421 5.18496 9.85916 5.08069 10.116C4.97643 10.3729 4.82237 10.6066 4.62741 10.8036C4.43245 11.0007 4.20047 11.1573 3.94475 11.2643C3.68903 11.3713 3.41467 11.4267 3.13746 11.4273C2.86018 11.4276 2.58562 11.3732 2.32947 11.2671C2.07332 11.1609 1.84063 11.0051 1.6449 10.8088C1.44916 10.6124 1.29421 10.3792 1.18892 10.1227C1.08364 9.86617 1.03014 9.5914 1.03146 9.31413C1.03013 8.75769 1.24952 8.22342 1.64151 7.82849C2.0335 7.43357 2.56608 7.21021 3.12252 7.20739ZM3.13815 10.5856C3.47399 10.5818 3.79498 10.4463 4.03186 10.2083C4.26875 9.97017 4.4026 9.64855 4.40463 9.3127C4.40221 8.97624 4.26744 8.65425 4.02952 8.41633C3.7916 8.17841 3.46966 8.04368 3.1332 8.04126C2.96683 8.0419 2.80221 8.07551 2.64891 8.14016C2.49561 8.20482 2.35668 8.29924 2.2401 8.41794C2.12351 8.53664 2.03161 8.67727 1.96972 8.83171C1.90784 8.98614 1.87722 9.15131 1.87957 9.31767C1.8773 9.48384 1.90813 9.64881 1.97033 9.80291C2.03253 9.95702 2.12485 10.0972 2.24183 10.2152C2.35881 10.3333 2.49806 10.4268 2.6516 10.4904C2.80514 10.554 2.96988 10.5863 3.13607 10.5856H3.13815Z" fill="url(#paint3_linear_43_8781)"/>
<path d="M10.5122 1.44271C10.0947 1.36246 9.68249 1.25721 9.27769 1.12752C9.01159 1.04855 8.8693 1.13251 8.90701 1.40714C8.94706 1.64019 8.99906 1.87101 9.06282 2.09871C9.0799 2.18749 9.12201 2.26958 9.18415 2.33525C9.24629 2.40092 9.32591 2.44748 9.41362 2.46944C9.77577 2.5662 10.1386 2.66012 10.5043 2.74194C10.6751 2.77965 10.7178 2.83728 10.6089 2.981C10.5413 3.08771 10.4416 3.17029 10.3241 3.21693C10.2067 3.26358 10.0775 3.27189 9.95506 3.24069C9.50923 3.13575 9.07149 2.99902 8.64519 2.83157C8.3653 2.71369 8.12923 2.51134 7.96991 2.25278C7.81059 1.99423 7.73597 1.69239 7.75651 1.38938C7.78764 1.21396 7.83407 1.04159 7.89526 0.874261C8.01272 0.599357 8.21281 0.3678 8.46779 0.21175C8.72278 0.0556997 9.02001 -0.0171061 9.31825 0.00339042C9.6392 0.0207337 9.94793 0.132182 10.2059 0.323876C10.4639 0.51557 10.6598 0.778988 10.769 1.08127C10.875 1.37156 10.8103 1.49038 10.5122 1.44271Z" fill="url(#paint4_linear_43_8781)"/>
<path d="M12.436 6.76413C12.2584 6.716 12.087 6.64746 11.9252 6.55992C11.7909 6.48991 11.6788 6.38399 11.6013 6.25396C11.5238 6.12393 11.4839 5.97489 11.4862 5.82352C11.4847 5.59474 11.5539 5.3711 11.6845 5.18322C11.8151 4.99534 12.0005 4.85244 12.2154 4.77408C12.2631 4.73708 12.3186 4.71156 12.3777 4.69952C12.4368 4.68748 12.4979 4.68922 12.5562 4.70464C12.6145 4.72006 12.6685 4.74873 12.7139 4.78841C12.7593 4.82809 12.795 4.87774 12.8181 4.93345C13.0062 5.23855 13.097 5.59366 13.0785 5.9516C13.0375 6.15313 12.9828 6.35161 12.9149 6.5457C12.9021 6.59446 12.8787 6.63977 12.8462 6.67834C12.8138 6.71692 12.7732 6.74778 12.7273 6.76869C12.6815 6.78961 12.6316 6.80005 12.5812 6.79926C12.5308 6.79847 12.4812 6.78648 12.436 6.76413V6.76413Z" fill="url(#paint5_linear_43_8781)"/>
<path d="M9.20065 1.25432C9.23054 1.24507 9.32022 1.32546 9.3252 1.37313C9.33018 1.4208 9.27394 1.48769 9.21559 1.60082C9.13519 1.49623 9.05836 1.43929 9.06334 1.38736C9.06832 1.33542 9.14302 1.26855 9.20065 1.25432Z" fill="url(#paint6_linear_43_8781)"/>
<path d="M3.10381 8.74252C3.18194 8.7377 3.26025 8.74879 3.33397 8.77511C3.40769 8.80144 3.47528 8.84243 3.53269 8.89564C3.5901 8.94886 3.6361 9.01318 3.66792 9.0847C3.69974 9.15622 3.71676 9.23344 3.71786 9.31171C3.71755 9.4634 3.65921 9.60922 3.55484 9.71929C3.45046 9.82935 3.3079 9.89532 3.15645 9.90368C3.07968 9.90585 3.00321 9.89284 2.9315 9.86537C2.85978 9.83791 2.79427 9.79655 2.7386 9.74365C2.68292 9.69075 2.6382 9.62737 2.6071 9.55716C2.57601 9.48694 2.55909 9.41126 2.55734 9.33449C2.55361 9.25957 2.56486 9.18464 2.59043 9.11412C2.616 9.0436 2.65541 8.9789 2.70629 8.92378C2.75717 8.86866 2.81852 8.82424 2.88677 8.79311C2.95502 8.76199 3.02883 8.7448 3.10381 8.74252V8.74252Z" fill="url(#paint7_linear_43_8781)"/>
<defs>
<linearGradient id="paint0_linear_43_8781" x1="7.94009" y1="2.49033" x2="7.94009" y2="10.5119" gradientUnits="userSpaceOnUse">
<stop stop-color="#FE724C"/>
<stop offset="1" stop-color="#FCA892"/>
</linearGradient>
<linearGradient id="paint1_linear_43_8781" x1="2.20451" y1="2.93417" x2="2.20451" y2="8.55962" gradientUnits="userSpaceOnUse">
<stop stop-color="#FE724C"/>
<stop offset="1" stop-color="#FCA892"/>
</linearGradient>
<linearGradient id="paint2_linear_43_8781" x1="11.6768" y1="6.43222" x2="11.6768" y2="11.4244" gradientUnits="userSpaceOnUse">
<stop stop-color="#FE724C"/>
<stop offset="1" stop-color="#FCA892"/>
</linearGradient>
<linearGradient id="paint3_linear_43_8781" x1="3.13323" y1="7.20721" x2="3.13323" y2="11.4273" gradientUnits="userSpaceOnUse">
<stop stop-color="#FE724C"/>
<stop offset="1" stop-color="#FCA892"/>
</linearGradient>
<linearGradient id="paint4_linear_43_8781" x1="9.2849" y1="0" x2="9.2849" y2="3.25924" gradientUnits="userSpaceOnUse">
<stop stop-color="#FE724C"/>
<stop offset="1" stop-color="#FCA892"/>
</linearGradient>
<linearGradient id="paint5_linear_43_8781" x1="12.2835" y1="4.69162" x2="12.2835" y2="6.79931" gradientUnits="userSpaceOnUse">
<stop stop-color="#FE724C"/>
<stop offset="1" stop-color="#FCA892"/>
</linearGradient>
<linearGradient id="paint6_linear_43_8781" x1="9.19431" y1="1.25359" x2="9.19431" y2="1.60082" gradientUnits="userSpaceOnUse">
<stop stop-color="#FE724C"/>
<stop offset="1" stop-color="#FCA892"/>
</linearGradient>
<linearGradient id="paint7_linear_43_8781" x1="3.13725" y1="8.74142" x2="3.13725" y2="9.90391" gradientUnits="userSpaceOnUse">
<stop stop-color="#FE724C"/>
<stop offset="1" stop-color="#FCA892"/>
</linearGradient>
</defs>
</svg>
