<svg width="23" height="23" viewBox="0 0 23 23" fill="none" xmlns="http://www.w3.org/2000/svg">
<path fill-rule="evenodd" clip-rule="evenodd" d="M21.0799 8.02616H17.0217C15.1331 8.02948 13.6032 9.52118 13.5998 11.3625C13.5972 13.2081 15.1288 14.7064 17.0217 14.7089H21.0833V15.0021C21.0833 18.2213 19.1317 20.125 15.8291 20.125H7.1717C3.86822 20.125 1.91663 18.2213 1.91663 15.0021V7.99045C1.91663 4.77118 3.86822 2.875 7.1717 2.875H15.8257C19.1283 2.875 21.0799 4.77118 21.0799 7.99045V8.02616ZM6.45864 8.01878H11.8636H11.867H11.8739C12.2785 8.01712 12.6056 7.69569 12.6039 7.30034C12.6022 6.90582 12.2717 6.58689 11.867 6.58855H6.45864C6.05657 6.59021 5.73031 6.90832 5.7286 7.30117C5.7269 7.69569 6.05401 8.01712 6.45864 8.01878Z" fill="#9796A1"/>
<path opacity="0.4" d="M15.3693 11.7842C15.5698 12.6958 16.369 13.3371 17.2814 13.3204H20.3959C20.7755 13.3204 21.0835 13.006 21.0835 12.6174V10.1913C21.0827 9.80349 20.7755 9.48824 20.3959 9.48741H17.2081C16.1702 9.49074 15.3319 10.3523 15.3335 11.4139C15.3335 11.5382 15.3457 11.6625 15.3693 11.7842Z" fill="#9796A1"/>
<path d="M17.2501 12.3624C17.7794 12.3624 18.2084 11.9333 18.2084 11.4041C18.2084 10.8748 17.7794 10.4457 17.2501 10.4457C16.7208 10.4457 16.2917 10.8748 16.2917 11.4041C16.2917 11.9333 16.7208 12.3624 17.2501 12.3624Z" fill="#9796A1"/>
</svg>
